<svg width="600" height="14" viewBox="0 0 600 14" fill="none" xmlns="http://www.w3.org/2000/svg">
<path d="M37.4233 14C22.2404 14 0 0 0 0H74.8466H149.693H225.767H299.387H300.613H374.233H449.08H525.153H600C600 0 577.76 14 562.577 14C547.394 14 525.153 0 525.153 0C525.153 0 502.548 14 487.117 14C471.685 14 449.08 0 449.08 0C449.08 0 426.839 14 411.656 14C396.474 14 374.233 0 374.233 0C374.233 0 351.993 14 336.81 14C323.115 14 303.679 2.61012 300 0.377184C296.321 2.61012 276.885 14 263.19 14C248.007 14 225.767 0 225.767 0C225.767 0 203.162 14 187.73 14C172.298 14 149.693 0 149.693 0C149.693 0 127.453 14 112.27 14C97.087 14 74.8466 0 74.8466 0C74.8466 0 52.6063 14 37.4233 14Z" fill="#2A3042"/>
</svg>
